<svg width="802" height="657" viewBox="0 0 802 657" fill="none" xmlns="http://www.w3.org/2000/svg">
<path opacity="0.3" d="M401.5 652.985C516.099 652.985 609 639.781 609 623.493C609 607.204 516.099 594 401.5 594C286.901 594 194 607.204 194 623.493C194 639.781 286.901 652.985 401.5 652.985Z" fill="black"/>
<path d="M310.718 579C284.605 579 265 566.886 265 551.925C272 534.5 289.647 532.662 312.282 533.025C338.395 533.025 358 536.95 358 551.911C358 566.872 336.831 579 310.718 579Z" fill="#FD3C4F"/>
<path d="M482.206 578.989C458.745 579.407 443.25 567.945 437 552.046C437 537.242 456.362 533.485 482.206 533.485C506.032 531.199 525.11 530.26 529 552.186C529 566.989 508.05 578.989 482.206 578.989Z" fill="#FD3C4F"/>
<path d="M265.974 550.162L379.077 247.313C394.843 250.628 405.368 268.531 402.586 287.317L358.155 551.892L313.277 559.967L265.974 550.162Z" fill="#FD3C4F"/>
<path d="M315.749 552.483L350.063 408.883C351.241 399.537 390.533 263.993 399.244 265.341C407.955 266.688 402.227 313.747 385.829 413.752L358.448 551.036L315.749 552.483Z" fill="#D73343"/>
<path d="M528.654 550.162L415.551 247.313C399.786 250.629 389.26 268.531 392.042 287.318L436.474 551.892L481.351 559.967L528.654 550.162Z" fill="#FD3C4F"/>
<path d="M478.88 552.483L444.566 408.883C443.388 399.537 404.096 263.993 395.385 265.341C386.673 266.688 392.402 313.747 408.8 413.752L436.181 551.036L478.88 552.483Z" fill="#D73343"/>
<path d="M593.605 241.96C593.605 341.808 508.122 424.865 400 424.865C291.878 424.865 206.395 341.808 206.395 241.96C206.395 142.112 291.878 59.0557 400 59.0557C508.122 59.0557 593.605 142.112 593.605 241.96Z" stroke="#22B1CE" stroke-width="50"/>
<path d="M399.799 225.247C391.826 224.686 385.531 214.263 385.19 200.049L382.473 84.6825C382.097 68.7509 389.357 54.0979 398.686 51.9481C407.969 49.8146 415.881 60.9557 416.257 76.8873L418.973 192.254C419.35 208.185 412.09 222.839 402.761 224.988C401.754 225.229 400.759 225.315 399.799 225.247Z" fill="#575454"/>
<path d="M397.236 441.602C389.263 441.04 382.968 430.617 382.626 416.403L379.91 301.037C379.534 285.105 386.794 270.452 396.123 268.302C405.405 266.169 413.318 277.31 413.694 293.241L416.41 408.608C416.786 424.539 409.527 439.193 400.198 441.342C399.191 441.583 398.196 441.669 397.236 441.602Z" fill="#575454"/>
<path d="M421.42 246.626C421.921 239.036 433.645 232.884 449.775 232.334L580.693 227.921C598.772 227.31 615.531 233.981 618.131 242.819C620.712 251.612 608.2 259.313 590.121 259.923L459.203 264.336C441.124 264.947 424.365 258.276 421.765 249.439C421.474 248.485 421.36 247.54 421.42 246.626Z" fill="#575454"/>
<path d="M175.77 247.621C176.271 240.03 187.996 233.878 204.125 233.328L335.043 228.915C353.123 228.305 369.881 234.976 372.481 243.813C375.062 252.607 362.55 260.307 344.471 260.918L213.553 265.331C195.474 265.941 178.716 259.27 176.115 250.433C175.825 249.479 175.71 248.535 175.77 247.621Z" fill="#575454"/>
<path d="M420.389 230.904C415.105 225.196 418.832 212.965 429.838 201.737L519.21 110.646C531.551 98.0655 548.367 91.526 556.772 96.0328C565.131 100.522 561.997 114.379 549.656 126.959L460.284 218.05C447.943 230.63 431.128 237.17 422.723 232.663C421.808 232.183 421.026 231.592 420.389 230.904Z" fill="#575454"/>
<path d="M243.695 392.52C238.411 386.811 242.138 374.58 253.144 363.352L342.516 272.261C354.857 259.681 371.673 253.141 380.078 257.648C388.437 262.137 385.304 275.994 372.963 288.574L283.591 379.665C271.25 392.245 254.434 398.785 246.029 394.278C245.114 393.799 244.332 393.207 243.695 392.52Z" fill="#575454"/>
<path d="M409.84 259.082C415.842 254.057 428.703 257.602 440.508 268.069L536.288 353.067C549.515 364.804 556.391 380.796 551.653 388.79C546.933 396.74 532.362 393.759 519.135 382.022L423.355 297.025C410.128 285.288 403.252 269.295 407.991 261.302C408.495 260.432 409.117 259.688 409.84 259.082Z" fill="#575454"/>
<path d="M239.907 91.0372C245.909 86.0116 258.77 89.5564 270.575 100.024L366.355 185.021C379.582 196.758 386.458 212.751 381.72 220.745C377 228.695 362.43 225.714 349.202 213.977L253.423 128.98C240.195 117.243 233.319 101.25 238.058 93.2564C238.562 92.387 239.184 91.6425 239.907 91.0372Z" fill="#575454"/>
<path d="M399.174 480.258C423.019 480.258 442.349 461.948 442.349 439.36C442.349 416.773 423.019 409 399.174 409C375.33 409 356 416.773 356 439.36C356 461.948 375.33 480.258 399.174 480.258Z" fill="#D98C00"/>
<path d="M399.5 480.511C421.315 480.511 439 471.809 439 451.205C439 430.602 421.315 435.511 399.5 435.511C377.685 435.511 360 430.602 360 451.205C360 471.809 377.685 480.511 399.5 480.511Z" fill="#FFA500"/>
<path d="M336.5 572C348.926 572 359 558.143 359 548C359 537.857 350.926 540.032 338.5 540.032C326.074 540.032 316 543.522 316 553.666C316 563.809 324.074 572 336.5 572Z" fill="#D73343"/>
<path d="M458.5 572C446 570.5 435.027 554.607 436 548C436 537.857 444.074 540.032 456.5 540.032C468.926 540.032 479 543.522 479 553.666C479 563.809 471 573.501 458.5 572Z" fill="#D73343"/>
<ellipse cx="399.394" cy="246.782" rx="50.9419" ry="48.4485" fill="#759AA1"/>
<ellipse cx="399.5" cy="247" rx="30.5" ry="29" fill="white"/>
<path d="M425 458C425 466.284 414.031 473 400.5 473C386.969 473 376 466.284 376 458C376 449.716 386.969 443 400.5 443C414.031 443 425 449.716 425 458Z" fill="#FFCE29"/>
<path d="M399.174 76.2583C423.019 76.2583 442.349 57.9477 442.349 35.3604C442.349 12.7732 423.019 5 399.174 5C375.33 5 356 12.7732 356 35.3604C356 57.9477 375.33 76.2583 399.174 76.2583Z" fill="#D98C00"/>
<path d="M399.5 76.5114C421.315 76.5114 439 67.809 439 47.2055C439 26.6019 421.315 31.5114 399.5 31.5114C377.685 31.5114 360 26.6019 360 47.2055C360 67.809 377.685 76.5114 399.5 76.5114Z" fill="#FFA500"/>
<path d="M425 54C425 62.2843 414.031 69 400.5 69C386.969 69 376 62.2843 376 54C376 45.7157 386.969 39 400.5 39C414.031 39 425 45.7157 425 54Z" fill="#FFCE29"/>
<path d="M619.174 276.258C595.33 276.258 576 257.948 576 235.36C576 212.773 595.33 205 619.174 205C643.019 205 662.349 212.773 662.349 235.36C662.349 257.948 643.019 276.258 619.174 276.258Z" fill="#D98C00"/>
<path d="M618.849 276.511C597.034 276.511 579.349 267.809 579.349 247.205C579.349 226.602 597.034 231.511 618.849 231.511C640.664 231.511 658.349 226.602 658.349 247.205C658.349 267.809 640.664 276.511 618.849 276.511Z" fill="#FFA500"/>
<path d="M593.349 254C593.349 262.284 604.318 269 617.849 269C631.38 269 642.349 262.284 642.349 254C642.349 245.716 631.38 239 617.849 239C604.318 239 593.349 245.716 593.349 254Z" fill="#FFCE29"/>
<path d="M184.174 276.258C160.33 276.258 141 257.948 141 235.36C141 212.773 160.33 205 184.174 205C208.019 205 227.349 212.773 227.349 235.36C227.349 257.948 208.019 276.258 184.174 276.258Z" fill="#D98C00"/>
<path d="M183.849 276.511C162.034 276.511 144.349 267.809 144.349 247.205C144.349 226.602 162.034 231.511 183.849 231.511C205.664 231.511 223.349 226.602 223.349 247.205C223.349 267.809 205.664 276.511 183.849 276.511Z" fill="#FFA500"/>
<path d="M158.349 254C158.349 262.284 169.318 269 182.849 269C196.38 269 207.349 262.284 207.349 254C207.349 245.716 196.38 239 182.849 239C169.318 239 158.349 245.716 158.349 254Z" fill="#FFCE29"/>
<path d="M242.174 426.258C266.019 426.258 285.349 407.948 285.349 385.36C285.349 362.773 266.019 355 242.174 355C218.33 355 199 362.773 199 385.36C199 407.948 218.33 426.258 242.174 426.258Z" fill="#D98C00"/>
<path d="M242.5 426.511C264.315 426.511 282 417.809 282 397.205C282 376.602 264.315 381.511 242.5 381.511C220.685 381.511 203 376.602 203 397.205C203 417.809 220.685 426.511 242.5 426.511Z" fill="#FFA500"/>
<path d="M268 404C268 412.284 257.031 419 243.5 419C229.969 419 219 412.284 219 404C219 395.716 229.969 389 243.5 389C257.031 389 268 395.716 268 404Z" fill="#FFCE29"/>
<path d="M556.174 426.258C580.019 426.258 599.349 407.948 599.349 385.36C599.349 362.773 580.019 355 556.174 355C532.33 355 513 362.773 513 385.36C513 407.948 532.33 426.258 556.174 426.258Z" fill="#D98C00"/>
<path d="M556.5 426.511C578.315 426.511 596 417.809 596 397.205C596 376.602 578.315 381.511 556.5 381.511C534.685 381.511 517 376.602 517 397.205C517 417.809 534.685 426.511 556.5 426.511Z" fill="#FFA500"/>
<path d="M582 404C582 412.284 571.031 419 557.5 419C543.969 419 533 412.284 533 404C533 395.716 543.969 389 557.5 389C571.031 389 582 395.716 582 404Z" fill="#FFCE29"/>
<path d="M242.174 136.258C266.019 136.258 285.349 117.948 285.349 95.3604C285.349 72.7732 266.019 65 242.174 65C218.33 65 199 72.7732 199 95.3604C199 117.948 218.33 136.258 242.174 136.258Z" fill="#D98C00"/>
<path d="M242.5 136.511C264.315 136.511 282 127.809 282 107.205C282 86.6019 264.315 91.5114 242.5 91.5114C220.685 91.5114 203 86.6019 203 107.205C203 127.809 220.685 136.511 242.5 136.511Z" fill="#FFA500"/>
<path d="M268 114C268 122.284 257.031 129 243.5 129C229.969 129 219 122.284 219 114C219 105.716 229.969 99 243.5 99C257.031 99 268 105.716 268 114Z" fill="#FFCE29"/>
<path d="M556.174 136.258C580.019 136.258 599.349 117.948 599.349 95.3604C599.349 72.7732 580.019 65 556.174 65C532.33 65 513 72.7732 513 95.3604C513 117.948 532.33 136.258 556.174 136.258Z" fill="#D98C00"/>
<path d="M556.5 136.511C578.315 136.511 596 127.809 596 107.205C596 86.6019 578.315 91.5114 556.5 91.5114C534.685 91.5114 517 86.6019 517 107.205C517 127.809 534.685 136.511 556.5 136.511Z" fill="#FFA500"/>
<path d="M582 114C582 122.284 571.031 129 557.5 129C543.969 129 533 122.284 533 114C533 105.716 543.969 99 557.5 99C571.031 99 582 105.716 582 114Z" fill="#FFCE29"/>
</svg>
