<svg xmlns="http://www.w3.org/2000/svg"  viewBox="0 0 64 64" width="256px" height="256px" baseProfile="basic"><ellipse cx="32" cy="61" opacity=".3" rx="19" ry="3"/><path fill="#fd3c4f" d="M51.991,8.045c0-1.242-1.106-2.192-2.334-2.005L28.895,9.294c-2.248,0.396-3.886,2.349-3.886,4.631	v1.933v10.582l0,7.07c0,2.088-1.599,3.586-3.687,3.516c-0.772-0.026-1.566,0.038-2.376,0.204c-4.033,0.822-7.084,3.932-7.789,7.987	c-1.099,6.313,3.729,11.793,9.837,11.793c5.499,0,9.957-4.441,9.99-9.931h0.004V25.403l11.949-1.898	c5.204-0.781,9.054-5.252,9.054-10.515V8.045z"/><path d="M16.172,55.755c1.431,0.792,3.07,1.254,4.822,1.254c5.499,0,9.957-4.441,9.99-9.931h0.004V32 c-2.761,0-5,2.239-5,5v9.878c-0.002,0.056-0.003,0.113-0.004,0.169c-0.016,2.736-2.255,4.961-4.99,4.961 C18.668,52.009,16.731,53.604,16.172,55.755z" opacity=".15"/><path fill="#fff" d="M25.009,13.925v1.933v10.582v0.558c2.761,0,5-2.236,5-4.997v-6.964 c0-0.493,0.359-0.912,0.845-0.988l8.88-1.391c2.578-0.404,4.584-2.649,4.428-5.253c-0.01-0.167-0.031-0.331-0.056-0.493 L28.895,9.294C26.647,9.69,25.009,11.643,25.009,13.925z" opacity=".3"/><path fill="none" stroke="#fff" stroke-linecap="round" stroke-linejoin="round" stroke-miterlimit="10" stroke-width="3" d="M28.509,16.989v-3.064c0-0.584,0.417-1.083,0.993-1.184L34,12.036"/></svg>