<svg xmlns="http://www.w3.org/2000/svg"  viewBox="0 0 64 64" width="256px" height="256px" baseProfile="basic"><path fill="#ffce29" d="M32,50.165l-12.123,6.374c-2.887,1.518-6.262-0.934-5.711-4.149l2.315-13.5l-9.808-9.56	c-2.336-2.277-1.047-6.244,2.181-6.713l13.554-1.97L28.47,8.365c1.444-2.925,5.615-2.925,7.059,0l6.062,12.282l13.554,1.97	c3.228,0.469,4.517,4.436,2.181,6.713l-9.808,9.561l2.315,13.5c0.551,3.215-2.823,5.667-5.711,4.149L32,50.165z"/><path fill="#ffce29" d="M32,50.165l-12.123,6.374c-2.887,1.518-6.262-0.934-5.711-4.149l2.315-13.5l-9.808-9.56	c-2.336-2.277-1.047-6.244,2.181-6.713l13.554-1.97L28.47,8.365c1.444-2.925,5.615-2.925,7.059,0l6.062,12.282l13.554,1.97	c3.228,0.469,4.517,4.436,2.181,6.713l-9.808,9.561l2.315,13.5c0.551,3.215-2.823,5.667-5.711,4.149L32,50.165z"/><ellipse cx="32" cy="61" opacity=".3" rx="19" ry="3"/><path fill="orange" d="M35.529,8.365C34.807,6.903,33.404,6.171,32,6.171V31l9.512-10.512L35.529,8.365z"/><path fill="orange" d="M47.526,38.938l-0.008-0.047l9.808-9.561c1.098-1.07,1.387-2.511,1.058-3.789L32,31L47.526,38.938z"/><path fill="orange" d="M47.867,56.493L32,31v19.165l12.122,6.375C45.404,57.214,46.779,57.103,47.867,56.493z"/><path fill="orange" d="M16.474,38.883l0.007,0.007l-2.315,13.5c-0.261,1.521,0.363,2.865,1.392,3.705L32,31L16.474,38.883z"/><path fill="orange" d="M32,31l-9.591-10.353l-0.001-0.001l0,0.001l-13.554,1.97c-1.449,0.211-2.502,1.128-3.017,2.278L32,31	z"/><path d="M58.388,25.556c-2.744,0.521-6.184,1.653-8.343,3.742c-1.956,1.892-6.017,6.013-6.017,6.013	c-1.178,1.148-1.716,2.803-1.438,4.425l1.951,11.375L34.327,45.74c-1.457-0.767-3.198-0.766-4.654,0c0,0-4.993,2.68-7.244,3.69	c-2.99,1.342-5.316,4.204-6.866,6.669c1.146,0.932,2.795,1.238,4.313,0.44L32,50.165l12.122,6.375	c2.888,1.518,6.262-0.934,5.711-4.149l-2.315-13.5l9.808-9.561C58.419,28.264,58.71,26.83,58.388,25.556z" opacity=".15"/><path fill="#fff" d="M5.836,24.89c3.659,0.784,7.448,1.814,11.344,1.425c1.938-0.194,5.948-0.72,5.948-0.72	c1.628-0.236,3.036-1.259,3.764-2.735c0,0,2.942-5.397,3.616-7.325c0.826-2.366,1.301-5.725,1.506-9.362	c-1.408-0.005-2.819,0.725-3.544,2.193l-6.062,12.282l-13.554,1.97C7.41,22.827,6.353,23.744,5.836,24.89z" opacity=".3"/><line x1="25.823" x2="28.465" y1="21.636" y2="16.283" fill="none" stroke="#fff" stroke-linecap="round" stroke-linejoin="round" stroke-miterlimit="10" stroke-width="3"/></svg>